<?xml version="1.0" encoding="utf-8"?><svg xmlns="http://www.w3.org/2000/svg" xmlns:xlink="http://www.w3.org/1999/xlink"><defs><svg viewBox="0 0 13 12" id="arrow" xmlns="http://www.w3.org/2000/svg"><path fill-rule="evenodd" clip-rule="evenodd" d="M8.586 7H0V5h8.586L5.293 1.707 6.707.293 12.414 6l-5.707 5.707-1.414-1.414L8.586 7z"/></svg><svg viewBox="0 0 48 12" id="arrow-left" xmlns="http://www.w3.org/2000/svg"><path fill-rule="evenodd" clip-rule="evenodd" d="M10 11.773L0 6 10 .226V5h38v2H10v4.773z"/></svg><svg viewBox="0 0 48 12" id="arrow-right" xmlns="http://www.w3.org/2000/svg"><path fill-rule="evenodd" clip-rule="evenodd" d="M38 .227L48 6l-10 5.774V7H0V5h38V.227z"/></svg><svg viewBox="0 0 18 18" id="bitcoin" xmlns="http://www.w3.org/2000/svg"><path fill-rule="evenodd" clip-rule="evenodd" d="M9 18a9 9 0 01-9-9 9 9 0 019-9 9 9 0 019 9 9 9 0 01-9 9zm4.044-10.114c.176-1.179-.722-1.813-1.95-2.236l.399-1.597-.972-.242-.388 1.555c-.255-.064-.518-.123-.78-.183l.392-1.566-.972-.242-.399 1.597c-.211-.048-.42-.096-.62-.146V4.82l-1.34-.335-.26 1.038s.723.166.707.176c.394.098.465.359.453.566l-.453 1.82a.864.864 0 01.101.031l-.103-.025-.636 2.55c-.048.119-.17.298-.446.23.01.014-.706-.176-.706-.176l-.483 1.113 1.266.315.692.179-.402 1.615.972.242.398-1.597c.265.071.523.138.775.2l-.397 1.591.972.242.402-1.612c1.658.314 2.905.188 3.43-1.312.423-1.207-.021-1.904-.894-2.358.636-.146 1.114-.564 1.242-1.428zm-2.222 3.115c-.3 1.208-2.333.555-2.993.391l.535-2.14c.66.165 2.772.49 2.458 1.75zm.3-3.132c-.273 1.098-1.965.54-2.514.403l.484-1.94c.549.136 2.317.391 2.03 1.537z"/></svg><svg viewBox="0 0 18 18" id="close" xmlns="http://www.w3.org/2000/svg"><path d="M14.53 4.53l-1.06-1.06L9 7.94 4.53 3.47 3.47 4.53 7.94 9l-4.47 4.47 1.06 1.06L9 10.06l4.47 4.47 1.06-1.06L10.06 9z"/></svg><svg viewBox="0 0 18 18" id="icon-moon" xmlns="http://www.w3.org/2000/svg"><path d="M15.566 15.33a9.074 9.074 0 002.42-4.327c.108-.454-.45-.761-.779-.43l-.012.012a6.91 6.91 0 01-9.93-.16A6.9 6.9 0 017.435.79c.33-.328.022-.884-.43-.776A9.068 9.068 0 002.712 2.4a9.103 9.103 0 00-.044 12.92 9.112 9.112 0 0012.898.009z"/></svg><svg viewBox="0 0 105 32" id="logo" xmlns="http://www.w3.org/2000/svg"><path d="M53 11.94c-.093.153-.19.267-.29.34a.623.623 0 01-.37.1.973.973 0 01-.48-.15 8.353 8.353 0 00-.59-.34 5.385 5.385 0 00-.78-.33 3.01 3.01 0 00-1.03-.16c-.693 0-1.213.157-1.56.47-.347.307-.52.71-.52 1.21 0 .32.093.587.28.8.193.207.443.387.75.54.313.153.667.29 1.06.41s.797.253 1.21.4c.413.14.817.307 1.21.5s.743.437 1.05.73c.313.293.563.653.75 1.08.193.42.29.933.29 1.54 0 .66-.117 1.28-.35 1.86a4.402 4.402 0 01-.99 1.51c-.433.427-.97.763-1.61 1.01-.633.247-1.353.37-2.16.37-.46 0-.92-.047-1.38-.14a8.118 8.118 0 01-1.32-.39 7.37 7.37 0 01-1.19-.6 5.251 5.251 0 01-.98-.78l.88-1.42a.84.84 0 01.29-.26.718.718 0 01.38-.11c.18 0 .37.067.57.2.2.133.43.28.69.44.26.16.56.307.9.44.347.133.76.2 1.24.2.7 0 1.24-.16 1.62-.48.387-.32.58-.797.58-1.43 0-.367-.097-.663-.29-.89a2.235 2.235 0 00-.74-.57 5.667 5.667 0 00-1.05-.39 40.187 40.187 0 01-1.21-.37 9.918 9.918 0 01-1.21-.48 3.745 3.745 0 01-1.05-.74 3.57 3.57 0 01-.75-1.14c-.187-.453-.28-1.017-.28-1.69a4.009 4.009 0 011.26-2.92c.413-.393.92-.71 1.52-.95.607-.24 1.3-.36 2.08-.36.873 0 1.68.137 2.42.41.747.267 1.377.64 1.89 1.12L53 11.94zM71.776 16.41c0 1.06-.18 2.043-.54 2.95a6.812 6.812 0 01-1.51 2.35 6.99 6.99 0 01-2.34 1.56c-.914.373-1.927.56-3.04.56-1.114 0-2.127-.187-3.04-.56a7.103 7.103 0 01-2.35-1.56 6.937 6.937 0 01-1.52-2.35c-.354-.907-.53-1.89-.53-2.95 0-1.06.176-2.04.53-2.94.36-.907.866-1.69 1.52-2.35a6.978 6.978 0 012.35-1.55c.913-.38 1.926-.57 3.04-.57 1.113 0 2.126.19 3.04.57a6.796 6.796 0 012.34 1.56 6.812 6.812 0 011.51 2.35c.36.9.54 1.877.54 2.93zm-3.07 0c0-.76-.1-1.44-.3-2.04-.2-.607-.49-1.12-.87-1.54a3.594 3.594 0 00-1.37-.97c-.534-.227-1.14-.34-1.82-.34-.68 0-1.29.113-1.83.34-.54.22-1 .543-1.38.97a4.32 4.32 0 00-.86 1.54c-.2.6-.3 1.28-.3 2.04 0 .767.1 1.453.3 2.06.2.6.486 1.11.86 1.53.38.42.84.743 1.38.97.54.22 1.15.33 1.83.33.68 0 1.286-.11 1.82-.33.54-.227.996-.55 1.37-.97.38-.42.67-.93.87-1.53.2-.607.3-1.293.3-2.06zM84.177 21.23v2.44h-8.61V9.16h3v12.07h5.61zM90.636 23.67h-3.02V9.16h3.02v14.51zM103.13 11.94c-.093.153-.19.267-.29.34a.621.621 0 01-.37.1.978.978 0 01-.48-.15 8.132 8.132 0 00-.59-.34 5.32 5.32 0 00-.78-.33 3.006 3.006 0 00-1.03-.16c-.693 0-1.213.157-1.56.47-.346.307-.52.71-.52 1.21 0 .32.094.587.28.8.194.207.444.387.75.54.314.153.667.29 1.06.41.394.12.797.253 1.21.4.414.14.817.307 1.21.5.394.193.744.437 1.05.73.314.293.564.653.75 1.08.194.42.29.933.29 1.54 0 .66-.116 1.28-.35 1.86a4.382 4.382 0 01-.99 1.51c-.433.427-.97.763-1.61 1.01-.633.247-1.353.37-2.16.37-.46 0-.92-.047-1.38-.14a8.112 8.112 0 01-1.32-.39 7.37 7.37 0 01-1.19-.6 5.248 5.248 0 01-.98-.78l.88-1.42a.84.84 0 01.29-.26.717.717 0 01.38-.11c.18 0 .37.067.57.2.2.133.43.28.69.44.26.16.56.307.9.44.347.133.76.2 1.24.2.7 0 1.24-.16 1.62-.48.387-.32.58-.797.58-1.43 0-.367-.096-.663-.29-.89a2.225 2.225 0 00-.74-.57 5.648 5.648 0 00-1.05-.39 40.099 40.099 0 01-1.21-.37 9.912 9.912 0 01-1.21-.48 3.742 3.742 0 01-1.05-.74 3.57 3.57 0 01-.75-1.14c-.186-.453-.28-1.017-.28-1.69a4.007 4.007 0 011.26-2.92c.414-.393.92-.71 1.52-.95.607-.24 1.3-.36 2.08-.36.874 0 1.68.137 2.42.41.747.267 1.377.64 1.89 1.12l-.74 1.41z"/><path fill-rule="evenodd" clip-rule="evenodd" d="M21.076 4.75L23.5 7.174 30.674 0h-4.91l-4.688 4.75zM32 8.112L28.576 4.75 32 1.326v6.786zM6.073 19.749l6.174-6.173 2.424 2.423-6.174 6.174-2.424-2.424zm14.999.002l6.173-6.174 2.424 2.424-6.173 6.173-2.424-2.424zm-5.076-2.425l-2.424 2.424 6.174 6.173 2.423-2.424-6.173-6.173zm-3.746 3.75l6.174 6.174L16 29.737 9.826 23.5l2.424-2.424zm18.813-3.75l.937.937v4.849l-3.424-3.362 2.486-2.424zM2.323 15.999l6.174-6.174 2.424 2.424-6.174 6.174-2.424-2.424zm21.172-6.172L17.323 16l2.424 2.424 6.173-6.173-2.424-2.424zm3.754-3.751L32 10.763v4.849L24.826 8.5l2.424-2.424zM13.576 4.75l6.174 6.174L22.174 8.5 16 2.263 13.576 4.75zm-1.328 1.327L9.824 8.5l6.173 6.173 2.424-2.424-6.173-6.173zM25.924 27.25L23.5 24.826 16.388 32h4.849l4.687-4.75zM12.25 28.576l2.424 2.486-.937.938H8.888l3.362-3.424zm-1.326-1.326L8.5 24.826 1.326 32h4.91l4.688-4.75zm13.902-3.75l2.424-2.424L32 25.763v4.911L24.826 23.5zM0 23.888v6.786l3.424-3.424L0 23.888zM23.888 32l3.362-3.424L30.674 32h-6.786zM17.326.937l2.424 2.487L23.112 0h-4.849l-.937.938zM8.112 0L4.75 3.424 1.326 0h6.786zM4.75 25.924L7.174 23.5 0 16.388v4.849l4.75 4.687zM8.5 7.174L6.076 4.75 10.763 0h4.849L8.5 7.174zm-3.75 3.75L7.174 8.5 0 1.326v4.91l4.75 4.688zM3.424 12.25L.938 14.674 0 13.737V8.888l3.424 3.362z"/></svg><svg viewBox="0 0 100 80" id="menu" xmlns="http://www.w3.org/2000/svg"><rect width="100" height="20" rx="8"/><rect y="30" width="100" height="20" rx="8"/><rect y="60" width="100" height="20" rx="8"/></svg><svg viewBox="0 0 33 35" id="play" xmlns="http://www.w3.org/2000/svg"><path d="M32.318 16.615a1 1 0 010 1.77L1.716 34.483a1 1 0 01-1.466-.885V1.402A1 1 0 011.716.517l30.602 16.098z"/></svg><svg viewBox="0 0 102 84" id="quote-icon" xmlns="http://www.w3.org/2000/svg"><path d="M68.683 45.195c-.485-1.712-.731-3.68-.731-5.91 0-6.076 2.31-12.076 6.986-18.007 4.897-5.94 10.638-10.28 17.222-13.03l.495-.208-.24-.479-2.904-5.785-.216-.432-.44.202c-11.25 5.174-19.718 12.087-25.37 20.752l-.005.008c-5.43 8.656-8.141 18.391-8.141 29.194 0 8.43 1.844 15.6 5.56 21.481C65.297 79.99 71.805 83.5 80.356 83.5c5.93 0 10.898-1.975 14.869-5.931 4.18-4.166 6.276-9.222 6.276-15.14 0-6.33-2.085-11.4-6.286-15.15-3.97-3.95-8.934-5.922-14.86-5.922-4.377 0-8.273 1.28-11.67 3.838zm-54.839 0c-.485-1.712-.731-3.68-.731-5.91 0-6.076 2.31-12.076 6.986-18.007 4.898-5.94 10.638-10.28 17.223-13.03l.494-.208-.24-.479-2.903-5.785-.217-.432-.44.202C22.767 6.72 14.299 13.633 8.647 22.298l-.005.008C3.211 30.962.5 40.697.5 51.5c0 8.43 1.845 15.6 5.561 21.481C10.458 79.99 16.965 83.5 25.516 83.5c5.93 0 10.898-1.975 14.87-5.931 4.18-4.166 6.275-9.222 6.275-15.14 0-6.33-2.085-11.4-6.286-15.15-3.969-3.95-8.934-5.922-14.859-5.922-4.377 0-8.274 1.28-11.671 3.838z"/><defs><linearGradient id="jquote-light" x1=".75" y1="55.409" x2="121.357" y2="72.969" gradientUnits="userSpaceOnUse"><stop stop-color="#F1897B"/><stop offset="1" stop-color="#F1897B" stop-opacity="0"/></linearGradient><linearGradient id="jquote-dark" x1=".75" y1="55.409" x2="121.357" y2="72.969" gradientUnits="userSpaceOnUse"><stop stop-color="#53F3CD"/><stop offset="1" stop-color="#53F3CD" stop-opacity="0"/></linearGradient></defs></svg><svg viewBox="0 0 102 84" id="quote-icon-dark" xmlns="http://www.w3.org/2000/svg"><path d="M68.683 45.195c-.485-1.712-.731-3.68-.731-5.91 0-6.076 2.31-12.076 6.986-18.007 4.897-5.94 10.638-10.28 17.222-13.03l.495-.208-.24-.479-2.904-5.785-.216-.432-.44.202c-11.25 5.174-19.718 12.087-25.37 20.752l-.005.008c-5.43 8.656-8.141 18.391-8.141 29.194 0 8.43 1.844 15.6 5.56 21.481C65.297 79.99 71.805 83.5 80.356 83.5c5.93 0 10.898-1.975 14.869-5.931 4.18-4.166 6.276-9.222 6.276-15.14 0-6.33-2.085-11.4-6.286-15.15-3.97-3.95-8.934-5.922-14.86-5.922-4.377 0-8.273 1.28-11.67 3.838zm-54.839 0c-.485-1.712-.731-3.68-.731-5.91 0-6.076 2.31-12.076 6.986-18.007 4.898-5.94 10.638-10.28 17.223-13.03l.494-.208-.24-.479-2.903-5.785-.217-.432-.44.202C22.767 6.72 14.299 13.633 8.647 22.298l-.005.008C3.211 30.962.5 40.697.5 51.5c0 8.43 1.845 15.6 5.561 21.481C10.458 79.99 16.965 83.5 25.516 83.5c5.93 0 10.898-1.975 14.87-5.931 4.18-4.166 6.275-9.222 6.275-15.14 0-6.33-2.085-11.4-6.286-15.15-3.969-3.95-8.934-5.922-14.859-5.922-4.377 0-8.274 1.28-11.671 3.838z"/><defs><linearGradient id="kquote-dark" x1=".75" y1="55.409" x2="121.357" y2="72.969" gradientUnits="userSpaceOnUse"><stop stop-color="#53F3CD"/><stop offset="1" stop-color="#53F3CD" stop-opacity="0"/></linearGradient></defs></svg><svg viewBox="0 0 20 20" id="sun-icon" xmlns="http://www.w3.org/2000/svg"><path fill-rule="evenodd" clip-rule="evenodd" d="M9.6 3.721h.8a.457.457 0 00.456-.456V.457A.457.457 0 0010.4 0h-.8a.457.457 0 00-.456.457v2.808c0 .252.204.456.457.456zm.4 11.896a5.616 5.616 0 100-11.233 5.616 5.616 0 000 11.232zM16.28 10.4v-.8c0-.252.204-.456.456-.456h2.808c.253 0 .457.204.457.457v.799a.457.457 0 01-.457.456h-2.808a.457.457 0 01-.456-.456zm-5.88 9.6a.457.457 0 00.457-.457v-2.808a.457.457 0 00-.456-.456h-.8a.457.457 0 00-.456.456v2.808c0 .253.204.457.457.457h.799zm-7.134-9.144H.457A.457.457 0 010 10.4v-.8c0-.252.204-.456.457-.456h2.808c.252 0 .456.204.456.457v.799a.457.457 0 01-.456.456zm11.457-5.013a.457.457 0 00.646 0l1.986-1.986a.457.457 0 000-.646l-.566-.565a.457.457 0 00-.645 0l-1.986 1.986a.457.457 0 000 .646l.565.565zm2.632 10.946l-.565.565a.457.457 0 01-.646 0l-1.986-1.986a.457.457 0 010-.646l.565-.565a.457.457 0 01.646 0l1.986 1.986a.457.457 0 010 .646zm-13.497.565l1.986-1.986a.456.456 0 000-.646l-.565-.565a.457.457 0 00-.646 0l-1.986 1.986a.457.457 0 000 .646l.566.565a.457.457 0 00.645 0zm1.42-11.511a.457.457 0 01-.645 0L2.646 3.857a.457.457 0 010-.646l.566-.565a.457.457 0 01.645 0l1.986 1.986a.457.457 0 010 .646l-.565.565z"/></svg><svg viewBox="0 0 18 18" id="tether" xmlns="http://www.w3.org/2000/svg"><path fill-rule="evenodd" clip-rule="evenodd" d="M9 18a9 9 0 01-9-9 9 9 0 019-9 9 9 0 019 9 9 9 0 01-9 9zm1.081-10.241V6.428h3.046v-2.03H4.835v2.03H7.88v1.33c-2.475.114-4.336.604-4.336 1.191 0 .588 1.861 1.078 4.336 1.192v4.265h2.201V10.14c2.471-.114 4.328-.604 4.328-1.19 0-.587-1.857-1.077-4.328-1.191zm0 2.019v-.001c-.062.004-.38.023-1.092.023-.568 0-.968-.016-1.109-.023v.002c-2.187-.097-3.82-.477-3.82-.933 0-.455 1.633-.836 3.82-.934V9.4c.143.01.552.035 1.118.035.68 0 1.02-.028 1.083-.034V7.913c2.183.098 3.811.478 3.811.933 0 .456-1.628.835-3.81.932z"/></svg></defs></svg>